<?xml version="1.0" encoding="utf-8"?>
<svg xmlns="http://www.w3.org/2000/svg" viewBox="264.0488 44.8329 436.9996 418.1074" width="437px" height="418.107px">
  <path d="M 351.331 45.192 C 352.269 45.188 353.207 45.184 354.173 45.179 C 355.196 45.179 356.218 45.179 357.271 45.18 C 358.91 45.174 358.91 45.174 360.583 45.168 C 364.252 45.157 367.921 45.154 371.59 45.15 C 374.218 45.143 376.847 45.137 379.475 45.13 C 387.371 45.11 395.266 45.1 403.162 45.091 C 406.888 45.087 410.614 45.081 414.339 45.076 C 426.739 45.059 439.14 45.045 451.54 45.037 C 454.756 45.035 457.973 45.033 461.189 45.032 C 461.989 45.031 462.788 45.031 463.612 45.03 C 476.531 45.022 489.45 44.996 502.37 44.964 C 515.659 44.931 528.948 44.913 542.237 44.91 C 549.688 44.908 557.139 44.899 564.59 44.873 C 570.943 44.851 577.295 44.844 583.648 44.853 C 586.881 44.858 590.113 44.854 593.346 44.836 C 625.883 44.671 651.874 50.953 675.554 74.327 C 691.537 90.278 700.588 113.258 700.702 135.706 C 700.702 137.12 700.702 137.12 700.702 138.563 C 700.705 139.58 700.709 140.597 700.713 141.644 C 700.724 145.044 700.728 148.445 700.731 151.845 C 700.738 154.286 700.744 156.728 700.751 159.169 C 700.771 166.492 700.781 173.814 700.79 181.137 C 700.794 184.594 700.8 188.052 700.805 191.51 C 700.822 203.021 700.837 214.533 700.844 226.044 C 700.846 229.028 700.848 232.011 700.85 234.995 C 700.85 235.736 700.851 236.478 700.851 237.242 C 700.859 249.226 700.885 261.211 700.917 273.196 C 700.95 285.531 700.968 297.867 700.971 310.202 C 700.974 317.116 700.982 324.029 701.008 330.942 C 701.032 337.457 701.035 343.971 701.025 350.486 C 701.025 352.862 701.031 355.239 701.045 357.616 C 701.213 388.181 695.315 413.941 673.461 436.51 C 656.233 453.593 633.5 462.469 609.445 462.481 C 608.322 462.485 607.199 462.489 606.042 462.494 C 602.277 462.507 598.512 462.513 594.747 462.52 C 592.048 462.527 589.349 462.536 586.65 462.544 C 578.547 462.569 570.444 462.583 562.341 462.596 C 560.049 462.6 557.757 462.604 555.465 462.608 C 541.209 462.633 526.953 462.655 512.697 462.668 C 509.398 462.671 506.098 462.674 502.798 462.677 C 501.568 462.678 501.568 462.678 500.313 462.679 C 487.054 462.692 473.795 462.725 460.535 462.767 C 446.897 462.809 433.259 462.833 419.62 462.838 C 411.973 462.841 404.326 462.853 396.679 462.886 C 390.161 462.914 383.643 462.925 377.125 462.914 C 373.807 462.909 370.49 462.914 367.172 462.936 C 340.449 463.106 318.735 458.243 297.554 441.327 C 296.947 440.883 296.34 440.44 295.715 439.983 C 280.529 428.264 270.826 408.634 266.554 390.327 C 266.381 389.606 266.207 388.885 266.029 388.142 C 263.778 376.988 264.258 365.626 264.264 354.301 C 264.258 351.865 264.251 349.43 264.244 346.994 C 264.228 341.086 264.221 335.178 264.22 329.27 C 264.219 324.461 264.215 319.652 264.209 314.844 C 264.191 301.171 264.182 287.499 264.184 273.827 C 264.184 273.091 264.184 272.356 264.184 271.599 C 264.184 270.863 264.184 270.126 264.184 269.368 C 264.185 257.45 264.166 245.532 264.138 233.614 C 264.109 221.34 264.095 209.065 264.097 196.79 C 264.097 189.914 264.092 183.038 264.07 176.162 C 264.05 169.689 264.051 163.216 264.065 156.743 C 264.068 154.381 264.063 152.018 264.051 149.655 C 263.903 118.909 271.28 93.839 292.679 70.827 C 306.583 57.489 322.938 50.235 341.554 46.327 C 342.352 46.149 343.15 45.972 343.972 45.79 C 346.487 45.339 348.779 45.198 351.331 45.192 Z" fill="#FEFEFE" style="stroke-width: 1;" transform="matrix(1, 0, 0, 1, 0, 5.684341886080802e-14)"/>
  <path d="M 651.554 129.327 C 653.554 131.327 653.554 131.327 653.669 133.629 C 652.747 145.446 650.942 157.135 649.171 168.85 C 648.617 172.515 648.07 176.182 647.525 179.848 C 647.172 182.21 646.819 184.571 646.465 186.932 C 646.303 188.013 646.142 189.093 645.975 190.206 C 645.514 193.249 645.039 196.288 644.554 199.327 C 644.392 200.365 644.229 201.403 644.061 202.472 C 643.896 203.464 643.73 204.455 643.56 205.476 C 643.415 206.362 643.27 207.248 643.12 208.161 C 642.554 210.327 642.554 210.327 640.554 212.327 C 636.404 212.234 634.308 210.531 631.456 207.631 C 630.993 207.138 630.531 206.646 630.054 206.139 C 629.573 205.643 629.092 205.146 628.596 204.634 C 625.415 201.323 622.386 197.939 619.554 194.327 C 614.767 198.791 610.929 203.861 606.992 209.077 C 605.931 210.476 605.931 210.476 604.848 211.904 C 599.073 219.558 593.524 227.353 588.037 235.214 C 585.407 238.961 582.731 242.675 580.054 246.389 C 579.522 247.135 578.989 247.881 578.44 248.65 C 575.736 252.413 572.971 256.084 570.031 259.667 C 569.468 260.367 568.906 261.068 568.326 261.789 C 567.264 263.103 566.181 264.4 565.072 265.675 C 562.236 269.218 561.205 271.574 561.566 276.155 C 562.421 281.39 563.741 286.493 565.242 291.577 C 565.509 292.488 565.776 293.4 566.051 294.339 C 570.641 309.617 575.896 323.349 590.554 331.327 C 598.703 335.141 607.459 333.376 615.89 331.374 C 618.554 331.327 618.554 331.327 620.686 332.884 C 623.188 336.155 623.085 338.265 623.121 342.358 C 623.127 343.031 623.133 343.704 623.14 344.397 C 623.147 345.816 623.144 347.235 623.131 348.653 C 623.117 350.821 623.151 352.984 623.189 355.151 C 623.19 356.532 623.188 357.914 623.183 359.295 C 623.184 361.174 623.184 361.174 623.186 363.09 C 622.554 366.327 622.554 366.327 620.247 368.689 C 610.771 374.451 596.095 373.748 585.527 371.639 C 567.218 366.784 554.108 355.562 544.673 339.395 C 541.376 333.297 538.94 326.822 536.554 320.327 C 535.903 318.585 535.903 318.585 535.238 316.807 C 534.322 314.32 533.425 311.83 532.554 309.327 C 532.154 309.982 531.753 310.636 531.34 311.311 C 512.841 341.01 487.62 368.608 452.262 376.862 C 435.652 380.291 414.399 380.954 398.554 374.327 C 397.914 374.064 397.274 373.8 396.615 373.529 C 375.128 364.464 361.215 348.641 352.355 327.34 C 337.757 290.618 342.038 250.062 357.261 214.323 C 363.416 200.552 371.224 188.3 381.554 177.327 C 382.439 176.362 383.323 175.398 384.234 174.405 C 402.978 154.737 428.195 143.733 455.304 143.014 C 479.759 143.453 502.135 151.956 519.554 169.327 C 534.309 185.154 544.014 205.528 549.047 226.456 C 549.388 228.326 549.388 228.326 550.554 229.327 C 550.896 228.819 551.237 228.312 551.589 227.789 C 557.827 218.538 564.127 209.43 571.011 200.647 C 574.064 196.71 576.935 192.648 579.804 188.577 C 580.288 187.891 580.771 187.206 581.27 186.5 C 584.779 181.496 588.183 176.425 591.554 171.327 C 590.873 170.979 590.192 170.631 589.491 170.273 C 586.405 168.692 583.323 167.103 580.242 165.514 C 579.17 164.967 578.098 164.42 576.994 163.856 C 575.966 163.324 574.938 162.793 573.879 162.245 C 572.931 161.758 571.983 161.271 571.006 160.769 C 568.773 159.456 567.184 158.327 565.554 156.327 C 565.429 154.327 565.429 154.327 566.554 152.327 C 571.748 149.802 577.066 148.206 582.625 146.69 C 583.492 146.449 584.359 146.208 585.252 145.96 C 588.06 145.182 590.869 144.41 593.679 143.639 C 595.617 143.105 597.554 142.57 599.491 142.035 C 602.405 141.23 605.32 140.425 608.236 139.623 C 614.04 138.026 619.837 136.405 625.629 134.76 C 626.966 134.383 628.304 134.005 629.642 133.628 C 632.062 132.945 634.48 132.257 636.897 131.562 C 637.966 131.263 639.035 130.963 640.136 130.655 C 641.046 130.396 641.956 130.137 642.894 129.871 C 645.882 129.26 648.513 129.1 651.554 129.327 Z" fill="#11151A" style="stroke-width: 1;" transform="matrix(1, 0, 0, 1, 0, 5.684341886080802e-14)"/>
  <path d="M 483.554 183.327 C 487.117 186.114 490.35 189.138 493.554 192.327 C 494.244 192.982 494.934 193.636 495.644 194.311 C 513.613 212.671 519.612 242.528 523.074 266.999 C 522.292 272.005 519.519 274.904 516.304 278.702 C 515.012 280.29 513.723 281.881 512.437 283.475 C 511.785 284.279 511.133 285.083 510.462 285.912 C 507.543 289.608 504.857 293.454 502.179 297.327 C 487.791 317.975 470.758 339.45 444.785 344.909 C 429.555 346.879 416.256 345.456 403.554 336.327 C 392.651 327.729 386.65 314.572 383.554 301.327 C 383.33 300.371 383.106 299.416 382.875 298.432 C 376.981 267.634 384.794 234.476 401.527 208.233 C 403.449 205.512 405.452 202.91 407.554 200.327 C 408.23 199.476 408.905 198.625 409.601 197.749 C 428.047 175.803 458.479 167.402 483.554 183.327 Z" fill="#FEFEFE" style="stroke-width: 1;" transform="matrix(1, 0, 0, 1, 0, 5.684341886080802e-14)"/>
</svg>